<mxfile host="65bd71144e">
    <diagram name="Page-1" id="74e2e168-ea6b-b213-b513-2b3c1d86103e">
        <mxGraphModel dx="1374" dy="787" grid="0" gridSize="10" guides="1" tooltips="1" connect="1" arrows="1" fold="1" page="1" pageScale="1" pageWidth="1169" pageHeight="827" background="none" math="0" shadow="0">
            <root>
                <mxCell id="0"/>
                <mxCell id="1" parent="0"/>
                <mxCell id="77e6c97f196da883-1" value="Prozess Reisekostenabrechnung ALT" style="swimlane;html=1;childLayout=stackLayout;startSize=20;rounded=0;shadow=0;labelBackgroundColor=none;strokeWidth=1;fontFamily=Verdana;fontSize=8;align=center;" parent="1" vertex="1">
                    <mxGeometry x="180" y="69" width="810" height="640" as="geometry"/>
                </mxCell>
                <mxCell id="77e6c97f196da883-2" value="Mitarbeiter" style="swimlane;html=1;startSize=20;opacity=20;labelBackgroundColor=none;" parent="77e6c97f196da883-1" vertex="1">
                    <mxGeometry y="20" width="160" height="620" as="geometry"/>
                </mxCell>
                <mxCell id="77e6c97f196da883-8" value="Erstellung Reisekostenabrechnung via Microsoft-Excel-Datei" style="rounded=1;whiteSpace=wrap;html=1;shadow=0;labelBackgroundColor=none;strokeWidth=1;fontFamily=Verdana;fontSize=8;align=center;" parent="77e6c97f196da883-2" vertex="1">
                    <mxGeometry x="30" y="100" width="100" height="60" as="geometry"/>
                </mxCell>
                <mxCell id="UOhaXWKnbidm3IS1rfFW-2" value="" style="edgeStyle=orthogonalEdgeStyle;rounded=0;orthogonalLoop=1;jettySize=auto;html=1;labelBackgroundColor=none;" parent="77e6c97f196da883-2" source="UOhaXWKnbidm3IS1rfFW-8" target="77e6c97f196da883-8" edge="1">
                    <mxGeometry relative="1" as="geometry">
                        <mxPoint x="80" y="60" as="sourcePoint"/>
                    </mxGeometry>
                </mxCell>
                <mxCell id="UOhaXWKnbidm3IS1rfFW-8" value="" style="ellipse;fillColor=#000000;strokeColor=none;labelBackgroundColor=none;" parent="77e6c97f196da883-2" vertex="1">
                    <mxGeometry x="65" y="30" width="30" height="30" as="geometry"/>
                </mxCell>
                <mxCell id="UOhaXWKnbidm3IS1rfFW-67" value="Anpassung der Reisekostenabrechnung" style="rounded=1;whiteSpace=wrap;html=1;shadow=0;labelBackgroundColor=none;strokeWidth=1;fontFamily=Verdana;fontSize=8;align=center;" parent="77e6c97f196da883-2" vertex="1">
                    <mxGeometry x="30" y="360" width="100" height="60" as="geometry"/>
                </mxCell>
                <mxCell id="107ba76e4e335f99-1" style="edgeStyle=orthogonalEdgeStyle;rounded=1;html=1;labelBackgroundColor=none;startArrow=none;startFill=0;startSize=5;endArrow=classicThin;endFill=1;endSize=5;jettySize=auto;orthogonalLoop=1;strokeWidth=1;fontFamily=Verdana;fontSize=8" parent="77e6c97f196da883-1" edge="1">
                    <mxGeometry relative="1" as="geometry">
                        <mxPoint x="670" y="450" as="targetPoint"/>
                    </mxGeometry>
                </mxCell>
                <mxCell id="77e6c97f196da883-3" value="Vorgesetzter" style="swimlane;html=1;startSize=20;opacity=20;labelBackgroundColor=none;" parent="77e6c97f196da883-1" vertex="1">
                    <mxGeometry x="160" y="20" width="160" height="620" as="geometry"/>
                </mxCell>
                <mxCell id="UOhaXWKnbidm3IS1rfFW-31" style="edgeStyle=orthogonalEdgeStyle;rounded=0;orthogonalLoop=1;jettySize=auto;html=1;fontSize=8;endArrow=open;endFill=0;labelBackgroundColor=none;" parent="77e6c97f196da883-3" source="77e6c97f196da883-11" target="UOhaXWKnbidm3IS1rfFW-11" edge="1">
                    <mxGeometry relative="1" as="geometry"/>
                </mxCell>
                <mxCell id="77e6c97f196da883-11" value="Vorgesetzter&amp;nbsp;&lt;br&gt;Prüft ob genehmigt wurde" style="rounded=1;whiteSpace=wrap;html=1;shadow=0;labelBackgroundColor=none;strokeWidth=1;fontFamily=Verdana;fontSize=8;align=center;" parent="77e6c97f196da883-3" vertex="1">
                    <mxGeometry x="30" y="100" width="100" height="60" as="geometry"/>
                </mxCell>
                <mxCell id="UOhaXWKnbidm3IS1rfFW-11" value="" style="rhombus;labelBackgroundColor=none;" parent="77e6c97f196da883-3" vertex="1">
                    <mxGeometry x="65" y="200" width="30" height="30" as="geometry"/>
                </mxCell>
                <mxCell id="UOhaXWKnbidm3IS1rfFW-52" value="&lt;font style=&quot;font-size: 8px; line-height: 0.7;&quot; face=&quot;Arial&quot;&gt;wurde&lt;br style=&quot;font-size: 8px;&quot;&gt;genehmigt?&lt;/font&gt;" style="text;html=1;align=center;verticalAlign=middle;resizable=0;points=[];autosize=1;strokeColor=none;fillColor=none;fontSize=8;spacing=1;labelBackgroundColor=none;" parent="77e6c97f196da883-3" vertex="1">
                    <mxGeometry x="27" y="179" width="60" height="30" as="geometry"/>
                </mxCell>
                <mxCell id="77e6c97f196da883-4" value="Geschäftsführung" style="swimlane;html=1;startSize=20;opacity=20;labelBackgroundColor=none;" parent="77e6c97f196da883-1" vertex="1">
                    <mxGeometry x="320" y="20" width="170" height="620" as="geometry"/>
                </mxCell>
                <mxCell id="77e6c97f196da883-29" style="edgeStyle=orthogonalEdgeStyle;rounded=1;html=1;labelBackgroundColor=none;startArrow=none;startFill=0;startSize=5;endArrow=classicThin;endFill=1;endSize=5;jettySize=auto;orthogonalLoop=1;strokeWidth=1;fontFamily=Verdana;fontSize=8" parent="77e6c97f196da883-4" edge="1">
                    <mxGeometry relative="1" as="geometry">
                        <mxPoint x="80" y="240" as="targetPoint"/>
                    </mxGeometry>
                </mxCell>
                <mxCell id="UOhaXWKnbidm3IS1rfFW-36" style="edgeStyle=orthogonalEdgeStyle;rounded=0;orthogonalLoop=1;jettySize=auto;html=1;fontSize=8;endArrow=open;endFill=0;jumpStyle=arc;jumpSize=8;labelBackgroundColor=none;" parent="77e6c97f196da883-4" source="UOhaXWKnbidm3IS1rfFW-9" target="UOhaXWKnbidm3IS1rfFW-35" edge="1">
                    <mxGeometry relative="1" as="geometry"/>
                </mxCell>
                <mxCell id="UOhaXWKnbidm3IS1rfFW-9" value="Geschäftsführung Prüft ob genehmigt wurde" style="rounded=1;whiteSpace=wrap;html=1;shadow=0;labelBackgroundColor=none;strokeWidth=1;fontFamily=Verdana;fontSize=8;align=center;" parent="77e6c97f196da883-4" vertex="1">
                    <mxGeometry x="35" y="185" width="100" height="60" as="geometry"/>
                </mxCell>
                <mxCell id="UOhaXWKnbidm3IS1rfFW-35" value="" style="rhombus;labelBackgroundColor=none;" parent="77e6c97f196da883-4" vertex="1">
                    <mxGeometry x="70" y="280" width="30" height="30" as="geometry"/>
                </mxCell>
                <mxCell id="UOhaXWKnbidm3IS1rfFW-44" value="&lt;font style=&quot;font-size: 8px; line-height: 0.7;&quot; face=&quot;Arial&quot;&gt;wurde&lt;br style=&quot;font-size: 8px;&quot;&gt;genehmigt?&lt;/font&gt;" style="text;html=1;align=center;verticalAlign=middle;resizable=0;points=[];autosize=1;strokeColor=none;fillColor=none;fontSize=8;spacing=1;labelBackgroundColor=none;" parent="77e6c97f196da883-4" vertex="1">
                    <mxGeometry x="29" y="254" width="60" height="30" as="geometry"/>
                </mxCell>
                <mxCell id="77e6c97f196da883-5" value="Payroll Accounting" style="swimlane;html=1;startSize=20;opacity=20;labelBackgroundColor=none;" parent="77e6c97f196da883-1" vertex="1">
                    <mxGeometry x="490" y="20" width="160" height="620" as="geometry"/>
                </mxCell>
                <mxCell id="77e6c97f196da883-34" style="edgeStyle=orthogonalEdgeStyle;rounded=1;html=1;labelBackgroundColor=none;startArrow=none;startFill=0;startSize=5;endArrow=classicThin;endFill=1;endSize=5;jettySize=auto;orthogonalLoop=1;strokeColor=#000000;strokeWidth=1;fontFamily=Verdana;fontSize=8;fontColor=#000000;" parent="77e6c97f196da883-5" edge="1">
                    <mxGeometry relative="1" as="geometry">
                        <mxPoint x="80" y="320" as="targetPoint"/>
                    </mxGeometry>
                </mxCell>
                <mxCell id="77e6c97f196da883-35" style="edgeStyle=orthogonalEdgeStyle;rounded=1;html=1;labelBackgroundColor=none;startArrow=none;startFill=0;startSize=5;endArrow=classicThin;endFill=1;endSize=5;jettySize=auto;orthogonalLoop=1;strokeWidth=1;fontFamily=Verdana;fontSize=8" parent="77e6c97f196da883-5" edge="1">
                    <mxGeometry relative="1" as="geometry">
                        <mxPoint x="80" y="400" as="targetPoint"/>
                    </mxGeometry>
                </mxCell>
                <mxCell id="UOhaXWKnbidm3IS1rfFW-62" style="edgeStyle=orthogonalEdgeStyle;rounded=0;sketch=0;jumpStyle=arc;jumpSize=8;orthogonalLoop=1;jettySize=auto;html=1;shadow=0;labelBackgroundColor=none;labelBorderColor=none;strokeColor=default;strokeWidth=1;fontSize=8;endArrow=open;endFill=0;" parent="77e6c97f196da883-5" source="UOhaXWKnbidm3IS1rfFW-16" target="UOhaXWKnbidm3IS1rfFW-53" edge="1">
                    <mxGeometry relative="1" as="geometry"/>
                </mxCell>
                <mxCell id="UOhaXWKnbidm3IS1rfFW-16" value="Prüft auf Manipulation und richtige Pauschalen" style="rounded=1;whiteSpace=wrap;html=1;shadow=0;labelBackgroundColor=none;strokeWidth=1;fontFamily=Verdana;fontSize=8;align=center;" parent="77e6c97f196da883-5" vertex="1">
                    <mxGeometry x="30" y="265" width="100" height="60" as="geometry"/>
                </mxCell>
                <mxCell id="UOhaXWKnbidm3IS1rfFW-53" value="" style="rhombus;labelBackgroundColor=none;" parent="77e6c97f196da883-5" vertex="1">
                    <mxGeometry x="65" y="365" width="30" height="30" as="geometry"/>
                </mxCell>
                <mxCell id="UOhaXWKnbidm3IS1rfFW-65" value="&lt;font face=&quot;Arial&quot;&gt;ist in&lt;br&gt;Ordnung?&lt;/font&gt;" style="text;html=1;align=center;verticalAlign=middle;resizable=0;points=[];autosize=1;strokeColor=none;fillColor=none;fontSize=8;spacing=1;labelBackgroundColor=none;" parent="77e6c97f196da883-5" vertex="1">
                    <mxGeometry x="70" y="335" width="60" height="30" as="geometry"/>
                </mxCell>
                <mxCell id="77e6c97f196da883-6" value="Accounting" style="swimlane;html=1;startSize=20;opacity=20;labelBackgroundColor=none;" parent="77e6c97f196da883-1" vertex="1">
                    <mxGeometry x="650" y="20" width="160" height="620" as="geometry"/>
                </mxCell>
                <mxCell id="77e6c97f196da883-37" style="edgeStyle=orthogonalEdgeStyle;rounded=1;html=1;labelBackgroundColor=none;startArrow=none;startFill=0;startSize=5;endArrow=classicThin;endFill=1;endSize=5;jettySize=auto;orthogonalLoop=1;strokeWidth=1;fontFamily=Verdana;fontSize=8" parent="77e6c97f196da883-6" edge="1">
                    <mxGeometry relative="1" as="geometry">
                        <mxPoint x="80" y="480" as="targetPoint"/>
                    </mxGeometry>
                </mxCell>
                <mxCell id="77e6c97f196da883-38" style="edgeStyle=orthogonalEdgeStyle;rounded=1;html=1;labelBackgroundColor=none;startArrow=none;startFill=0;startSize=5;endArrow=classicThin;endFill=1;endSize=5;jettySize=auto;orthogonalLoop=1;strokeWidth=1;fontFamily=Verdana;fontSize=8" parent="77e6c97f196da883-6" edge="1">
                    <mxGeometry relative="1" as="geometry">
                        <mxPoint x="80" y="560" as="targetPoint"/>
                    </mxGeometry>
                </mxCell>
                <mxCell id="UOhaXWKnbidm3IS1rfFW-72" style="edgeStyle=orthogonalEdgeStyle;rounded=0;sketch=0;jumpStyle=arc;jumpSize=8;orthogonalLoop=1;jettySize=auto;html=1;shadow=0;labelBackgroundColor=none;labelBorderColor=none;strokeColor=default;strokeWidth=1;fontSize=8;endArrow=open;endFill=0;" parent="77e6c97f196da883-6" source="UOhaXWKnbidm3IS1rfFW-55" target="UOhaXWKnbidm3IS1rfFW-71" edge="1">
                    <mxGeometry relative="1" as="geometry"/>
                </mxCell>
                <mxCell id="UOhaXWKnbidm3IS1rfFW-55" value="Prüft auf Berechnungen und passende belege" style="rounded=1;whiteSpace=wrap;html=1;shadow=0;labelBackgroundColor=none;strokeWidth=1;fontFamily=Verdana;fontSize=8;align=center;" parent="77e6c97f196da883-6" vertex="1">
                    <mxGeometry x="30" y="350" width="100" height="60" as="geometry"/>
                </mxCell>
                <mxCell id="UOhaXWKnbidm3IS1rfFW-77" style="edgeStyle=orthogonalEdgeStyle;rounded=0;sketch=0;jumpStyle=arc;jumpSize=8;orthogonalLoop=1;jettySize=auto;html=1;shadow=0;labelBackgroundColor=none;labelBorderColor=none;strokeColor=default;strokeWidth=1;fontSize=8;endArrow=open;endFill=0;" parent="77e6c97f196da883-6" source="UOhaXWKnbidm3IS1rfFW-71" target="UOhaXWKnbidm3IS1rfFW-76" edge="1">
                    <mxGeometry relative="1" as="geometry"/>
                </mxCell>
                <mxCell id="UOhaXWKnbidm3IS1rfFW-71" value="" style="rhombus;labelBackgroundColor=none;" parent="77e6c97f196da883-6" vertex="1">
                    <mxGeometry x="65" y="450" width="30" height="30" as="geometry"/>
                </mxCell>
                <mxCell id="UOhaXWKnbidm3IS1rfFW-73" value="&lt;font face=&quot;Arial&quot;&gt;ist in&lt;br&gt;Ordnung?&lt;/font&gt;" style="text;html=1;align=center;verticalAlign=middle;resizable=0;points=[];autosize=1;strokeColor=none;fillColor=none;fontSize=8;spacing=1;labelBackgroundColor=none;" parent="77e6c97f196da883-6" vertex="1">
                    <mxGeometry x="70" y="430" width="60" height="30" as="geometry"/>
                </mxCell>
                <mxCell id="UOhaXWKnbidm3IS1rfFW-76" value="Veranlasst Auszahlung der Angefallenen Kosten/Pauschalen" style="rounded=1;whiteSpace=wrap;html=1;shadow=0;labelBackgroundColor=none;strokeWidth=1;fontFamily=Verdana;fontSize=8;align=center;" parent="77e6c97f196da883-6" vertex="1">
                    <mxGeometry x="30" y="520" width="100" height="60" as="geometry"/>
                </mxCell>
                <mxCell id="UOhaXWKnbidm3IS1rfFW-30" style="edgeStyle=orthogonalEdgeStyle;rounded=0;orthogonalLoop=1;jettySize=auto;html=1;fontSize=8;endArrow=open;endFill=0;labelBackgroundColor=none;" parent="77e6c97f196da883-1" source="77e6c97f196da883-8" target="77e6c97f196da883-11" edge="1">
                    <mxGeometry relative="1" as="geometry"/>
                </mxCell>
                <mxCell id="UOhaXWKnbidm3IS1rfFW-33" style="edgeStyle=orthogonalEdgeStyle;rounded=0;orthogonalLoop=1;jettySize=auto;html=1;fontSize=8;endArrow=open;endFill=0;jumpStyle=arc;jumpSize=8;labelBackgroundColor=none;" parent="77e6c97f196da883-1" source="UOhaXWKnbidm3IS1rfFW-11" target="UOhaXWKnbidm3IS1rfFW-9" edge="1">
                    <mxGeometry relative="1" as="geometry"/>
                </mxCell>
                <mxCell id="UOhaXWKnbidm3IS1rfFW-34" value="[gehnemigt &amp;amp;&amp;amp;&lt;br&gt;&amp;nbsp;Kosten &amp;gt;250€]" style="edgeLabel;html=1;align=center;verticalAlign=middle;resizable=0;points=[];fontSize=8;labelBackgroundColor=none;" parent="UOhaXWKnbidm3IS1rfFW-33" vertex="1" connectable="0">
                    <mxGeometry x="-0.6712" relative="1" as="geometry">
                        <mxPoint x="10" y="-11" as="offset"/>
                    </mxGeometry>
                </mxCell>
                <mxCell id="UOhaXWKnbidm3IS1rfFW-42" style="edgeStyle=orthogonalEdgeStyle;rounded=0;orthogonalLoop=1;jettySize=auto;html=1;fontSize=8;endArrow=open;endFill=0;entryX=0.5;entryY=0;entryDx=0;entryDy=0;jumpStyle=arc;jumpSize=8;labelBackgroundColor=none;" parent="77e6c97f196da883-1" source="UOhaXWKnbidm3IS1rfFW-35" target="UOhaXWKnbidm3IS1rfFW-16" edge="1">
                    <mxGeometry relative="1" as="geometry">
                        <Array as="points">
                            <mxPoint x="470" y="315"/>
                            <mxPoint x="470" y="265"/>
                            <mxPoint x="570" y="265"/>
                        </Array>
                    </mxGeometry>
                </mxCell>
                <mxCell id="UOhaXWKnbidm3IS1rfFW-43" value="[true]" style="edgeLabel;html=1;align=center;verticalAlign=middle;resizable=0;points=[];fontSize=8;labelBackgroundColor=none;" parent="UOhaXWKnbidm3IS1rfFW-42" vertex="1" connectable="0">
                    <mxGeometry x="0.2167" relative="1" as="geometry">
                        <mxPoint x="-73" y="43" as="offset"/>
                    </mxGeometry>
                </mxCell>
                <mxCell id="UOhaXWKnbidm3IS1rfFW-58" value="&lt;span style=&quot;color: rgb(0, 0, 0); font-family: Helvetica; font-size: 8px; font-style: normal; font-variant-ligatures: normal; font-variant-caps: normal; font-weight: 400; letter-spacing: normal; orphans: 2; text-align: center; text-indent: 0px; text-transform: none; widows: 2; word-spacing: 0px; -webkit-text-stroke-width: 0px; text-decoration-thickness: initial; text-decoration-style: initial; text-decoration-color: initial; float: none; display: inline !important;&quot;&gt;[gehnemigt &amp;amp;&amp;amp;&lt;/span&gt;&lt;br style=&quot;color: rgb(0, 0, 0); font-family: Helvetica; font-size: 8px; font-style: normal; font-variant-ligatures: normal; font-variant-caps: normal; font-weight: 400; letter-spacing: normal; orphans: 2; text-align: center; text-indent: 0px; text-transform: none; widows: 2; word-spacing: 0px; -webkit-text-stroke-width: 0px; text-decoration-thickness: initial; text-decoration-style: initial; text-decoration-color: initial;&quot;&gt;&lt;span style=&quot;color: rgb(0, 0, 0); font-family: Helvetica; font-size: 8px; font-style: normal; font-variant-ligatures: normal; font-variant-caps: normal; font-weight: 400; letter-spacing: normal; orphans: 2; text-align: center; text-indent: 0px; text-transform: none; widows: 2; word-spacing: 0px; -webkit-text-stroke-width: 0px; text-decoration-thickness: initial; text-decoration-style: initial; text-decoration-color: initial; float: none; display: inline !important;&quot;&gt;&amp;nbsp;Kosten &amp;lt;250€]&lt;/span&gt;" style="edgeStyle=orthogonalEdgeStyle;rounded=0;sketch=0;jumpStyle=arc;jumpSize=8;orthogonalLoop=1;jettySize=auto;html=1;shadow=0;labelBackgroundColor=none;labelBorderColor=none;strokeColor=default;strokeWidth=1;fontSize=8;endArrow=open;endFill=0;entryX=0.004;entryY=0.576;entryDx=0;entryDy=0;entryPerimeter=0;" parent="77e6c97f196da883-1" edge="1">
                    <mxGeometry x="-0.9071" y="30" relative="1" as="geometry">
                        <mxPoint x="240" y="250" as="sourcePoint"/>
                        <mxPoint x="520.4" y="319.56000000000006" as="targetPoint"/>
                        <Array as="points">
                            <mxPoint x="240" y="360"/>
                            <mxPoint x="500" y="360"/>
                            <mxPoint x="500" y="320"/>
                        </Array>
                        <mxPoint as="offset"/>
                    </mxGeometry>
                </mxCell>
                <mxCell id="UOhaXWKnbidm3IS1rfFW-63" style="edgeStyle=orthogonalEdgeStyle;rounded=0;sketch=0;jumpStyle=arc;jumpSize=8;orthogonalLoop=1;jettySize=auto;html=1;shadow=0;labelBackgroundColor=none;labelBorderColor=none;strokeColor=default;strokeWidth=1;fontSize=8;endArrow=open;endFill=0;" parent="77e6c97f196da883-1" source="UOhaXWKnbidm3IS1rfFW-53" target="UOhaXWKnbidm3IS1rfFW-55" edge="1">
                    <mxGeometry relative="1" as="geometry"/>
                </mxCell>
                <mxCell id="UOhaXWKnbidm3IS1rfFW-64" value="[true]" style="edgeLabel;html=1;align=center;verticalAlign=middle;resizable=0;points=[];fontSize=8;labelBackgroundColor=none;" parent="UOhaXWKnbidm3IS1rfFW-63" vertex="1" connectable="0">
                    <mxGeometry x="-0.2674" relative="1" as="geometry">
                        <mxPoint x="-26" y="5" as="offset"/>
                    </mxGeometry>
                </mxCell>
                <mxCell id="UOhaXWKnbidm3IS1rfFW-69" style="edgeStyle=orthogonalEdgeStyle;rounded=0;sketch=0;jumpStyle=arc;jumpSize=8;orthogonalLoop=1;jettySize=auto;html=1;shadow=0;labelBackgroundColor=none;labelBorderColor=none;strokeColor=default;strokeWidth=1;fontSize=8;endArrow=open;endFill=0;" parent="77e6c97f196da883-1" source="UOhaXWKnbidm3IS1rfFW-53" target="UOhaXWKnbidm3IS1rfFW-67" edge="1">
                    <mxGeometry relative="1" as="geometry">
                        <Array as="points">
                            <mxPoint x="240" y="400"/>
                            <mxPoint x="240" y="400"/>
                        </Array>
                    </mxGeometry>
                </mxCell>
                <mxCell id="UOhaXWKnbidm3IS1rfFW-70" value="[false]" style="edgeLabel;html=1;align=center;verticalAlign=middle;resizable=0;points=[];fontSize=8;labelBackgroundColor=none;" parent="UOhaXWKnbidm3IS1rfFW-69" vertex="1" connectable="0">
                    <mxGeometry x="-0.8467" y="1" relative="1" as="geometry">
                        <mxPoint x="21" y="4" as="offset"/>
                    </mxGeometry>
                </mxCell>
                <mxCell id="UOhaXWKnbidm3IS1rfFW-74" style="edgeStyle=orthogonalEdgeStyle;rounded=0;sketch=0;jumpStyle=arc;jumpSize=8;orthogonalLoop=1;jettySize=auto;html=1;shadow=0;labelBackgroundColor=none;labelBorderColor=none;strokeColor=default;strokeWidth=1;fontSize=8;endArrow=open;endFill=0;" parent="77e6c97f196da883-1" source="UOhaXWKnbidm3IS1rfFW-71" target="UOhaXWKnbidm3IS1rfFW-67" edge="1">
                    <mxGeometry relative="1" as="geometry">
                        <Array as="points">
                            <mxPoint x="660" y="485"/>
                            <mxPoint x="660" y="420"/>
                        </Array>
                    </mxGeometry>
                </mxCell>
                <mxCell id="UOhaXWKnbidm3IS1rfFW-75" value="[false]" style="edgeLabel;html=1;align=center;verticalAlign=middle;resizable=0;points=[];fontSize=8;labelBackgroundColor=none;" parent="UOhaXWKnbidm3IS1rfFW-74" vertex="1" connectable="0">
                    <mxGeometry x="-0.9366" y="1" relative="1" as="geometry">
                        <mxPoint x="10" y="6" as="offset"/>
                    </mxGeometry>
                </mxCell>
                <mxCell id="UOhaXWKnbidm3IS1rfFW-81" style="edgeStyle=orthogonalEdgeStyle;rounded=0;sketch=0;jumpStyle=arc;jumpSize=8;orthogonalLoop=1;jettySize=auto;html=1;shadow=0;labelBackgroundColor=none;labelBorderColor=none;strokeColor=default;strokeWidth=1;fontSize=8;endArrow=open;endFill=0;entryX=0.25;entryY=1;entryDx=0;entryDy=0;" parent="77e6c97f196da883-1" source="UOhaXWKnbidm3IS1rfFW-67" target="UOhaXWKnbidm3IS1rfFW-16" edge="1">
                    <mxGeometry relative="1" as="geometry">
                        <mxPoint x="540" y="370" as="targetPoint"/>
                        <Array as="points">
                            <mxPoint x="80" y="470"/>
                            <mxPoint x="520" y="470"/>
                            <mxPoint x="520" y="370"/>
                            <mxPoint x="545" y="370"/>
                        </Array>
                    </mxGeometry>
                </mxCell>
                <mxCell id="UOhaXWKnbidm3IS1rfFW-40" style="edgeStyle=orthogonalEdgeStyle;rounded=0;orthogonalLoop=1;jettySize=auto;html=1;fontSize=8;endArrow=open;endFill=0;jumpStyle=arc;jumpSize=8;labelBackgroundColor=none;" parent="1" source="UOhaXWKnbidm3IS1rfFW-11" target="UOhaXWKnbidm3IS1rfFW-45" edge="1">
                    <mxGeometry relative="1" as="geometry">
                        <mxPoint x="370" y="303.99999999999994" as="targetPoint"/>
                        <Array as="points">
                            <mxPoint x="380" y="304"/>
                            <mxPoint x="380" y="744"/>
                        </Array>
                    </mxGeometry>
                </mxCell>
                <mxCell id="UOhaXWKnbidm3IS1rfFW-41" value="[abgelehnt]" style="edgeLabel;html=1;align=center;verticalAlign=middle;resizable=0;points=[];fontSize=8;labelBackgroundColor=none;" parent="UOhaXWKnbidm3IS1rfFW-40" vertex="1" connectable="0">
                    <mxGeometry x="-0.4057" relative="1" as="geometry">
                        <mxPoint x="-20" y="-155" as="offset"/>
                    </mxGeometry>
                </mxCell>
                <mxCell id="UOhaXWKnbidm3IS1rfFW-45" value="" style="ellipse;html=1;shape=endState;fillColor=strokeColor;fontSize=8;labelBackgroundColor=none;" parent="1" vertex="1">
                    <mxGeometry x="570" y="729" width="30" height="30" as="geometry"/>
                </mxCell>
                <mxCell id="UOhaXWKnbidm3IS1rfFW-46" style="edgeStyle=orthogonalEdgeStyle;rounded=0;orthogonalLoop=1;jettySize=auto;html=1;fontSize=8;endArrow=open;endFill=0;jumpStyle=arc;jumpSize=8;labelBackgroundColor=none;" parent="1" source="UOhaXWKnbidm3IS1rfFW-35" target="UOhaXWKnbidm3IS1rfFW-45" edge="1">
                    <mxGeometry relative="1" as="geometry"/>
                </mxCell>
                <mxCell id="UOhaXWKnbidm3IS1rfFW-47" value="[false]" style="edgeLabel;html=1;align=center;verticalAlign=middle;resizable=0;points=[];fontSize=8;labelBackgroundColor=none;" parent="UOhaXWKnbidm3IS1rfFW-46" vertex="1" connectable="0">
                    <mxGeometry x="-0.8273" relative="1" as="geometry">
                        <mxPoint x="-14" y="-34" as="offset"/>
                    </mxGeometry>
                </mxCell>
                <mxCell id="UOhaXWKnbidm3IS1rfFW-59" value="" style="edgeStyle=orthogonalEdgeStyle;rounded=0;orthogonalLoop=1;jettySize=auto;html=1;jumpStyle=arc;jumpSize=8;labelBackgroundColor=none;" parent="1" edge="1">
                    <mxGeometry relative="1" as="geometry">
                        <mxPoint x="260" y="149" as="sourcePoint"/>
                        <mxPoint x="260" y="189" as="targetPoint"/>
                    </mxGeometry>
                </mxCell>
                <mxCell id="UOhaXWKnbidm3IS1rfFW-60" style="edgeStyle=orthogonalEdgeStyle;rounded=0;orthogonalLoop=1;jettySize=auto;html=1;fontSize=8;endArrow=open;endFill=0;jumpStyle=arc;jumpSize=8;labelBackgroundColor=none;" parent="1" edge="1">
                    <mxGeometry relative="1" as="geometry">
                        <mxPoint x="310" y="219" as="sourcePoint"/>
                        <mxPoint x="370" y="219" as="targetPoint"/>
                    </mxGeometry>
                </mxCell>
                <mxCell id="UOhaXWKnbidm3IS1rfFW-61" style="edgeStyle=orthogonalEdgeStyle;rounded=0;orthogonalLoop=1;jettySize=auto;html=1;fontSize=8;endArrow=open;endFill=0;jumpStyle=arc;jumpSize=8;labelBackgroundColor=none;" parent="1" edge="1">
                    <mxGeometry relative="1" as="geometry">
                        <mxPoint x="420" y="249" as="sourcePoint"/>
                        <mxPoint x="420" y="289" as="targetPoint"/>
                    </mxGeometry>
                </mxCell>
                <mxCell id="UOhaXWKnbidm3IS1rfFW-86" style="edgeStyle=orthogonalEdgeStyle;rounded=0;sketch=0;jumpStyle=arc;jumpSize=8;orthogonalLoop=1;jettySize=auto;html=1;shadow=0;labelBackgroundColor=none;labelBorderColor=none;strokeColor=default;strokeWidth=1;fontSize=8;endArrow=open;endFill=0;" parent="1" source="UOhaXWKnbidm3IS1rfFW-76" target="UOhaXWKnbidm3IS1rfFW-45" edge="1">
                    <mxGeometry relative="1" as="geometry">
                        <Array as="points">
                            <mxPoint x="910" y="744"/>
                        </Array>
                    </mxGeometry>
                </mxCell>
            </root>
        </mxGraphModel>
    </diagram>
</mxfile>